# WaveFront *.obj file (generated by Autodesk ATF)

mtllib f0cf359a-66dd-4d23-8894-6f1a6230f4fb.mtl

g Body1

v 43.416484 21.791758 295.000000
v 43.416484 -22.208242 295.000000
v 43.416484 -22.208242 5.000000
v 43.416484 21.791758 5.000000
v 50.416484 21.791758 300.000000
v 50.416484 21.791758 0.000000
v 50.416484 24.791758 0.000000
v 50.416484 24.791758 300.000000
v 50.416484 -22.208242 0.000000
v 50.416484 -22.208242 300.000000
v 50.416484 -25.208242 300.000000
v 50.416484 -25.208242 0.000000
v -147.345232 21.791758 295.000000
v -147.779885 21.743956 295.000000
v -148.193760 21.602835 295.000000
v -148.567074 21.375141 295.000000
v -148.881982 21.071758 295.000000
v -153.082861 14.642313 295.000000
v -155.696521 7.420545 295.000000
v -156.583516 -0.208242 295.000000
v -155.696521 -7.837029 295.000000
v -153.082861 -15.058797 295.000000
v -148.881982 -21.488242 295.000000
v -148.567074 -21.791625 295.000000
v -148.193760 -22.019319 295.000000
v -147.779885 -22.160440 295.000000
v -147.345232 -22.208242 295.000000
v -148.881982 21.071758 300.000000
v -153.082861 14.642313 300.000000
v -155.696521 7.420545 300.000000
v -156.583516 -0.208242 300.000000
v -155.696521 -7.837029 300.000000
v -153.082861 -15.058797 300.000000
v -148.881982 -21.488242 300.000000
v -148.567074 -21.791625 300.000000
v -148.193760 -22.019319 300.000000
v -147.779885 -22.160440 300.000000
v -147.345232 -22.208242 300.000000
v -147.345232 21.791758 300.000000
v -147.779885 21.743956 300.000000
v -148.193760 21.602835 300.000000
v -148.567074 21.375141 300.000000
v -147.345232 -22.208242 0.000000
v -147.345232 -22.208242 5.000000
v -147.779885 -22.160440 0.000000
v -148.193760 -22.019319 0.000000
v -148.567074 -21.791625 0.000000
v -148.881982 -21.488242 0.000000
v -148.881982 -21.488242 5.000000
v -148.567074 -21.791625 5.000000
v -148.193760 -22.019319 5.000000
v -147.779885 -22.160440 5.000000
v -153.082861 -15.058797 0.000000
v -155.696521 -7.837029 0.000000
v -156.583516 -0.208242 0.000000
v -155.696521 7.420545 0.000000
v -153.082861 14.642313 0.000000
v -148.881982 21.071758 0.000000
v -148.881982 21.071758 5.000000
v -153.082861 14.642313 5.000000
v -155.696521 7.420545 5.000000
v -156.583516 -0.208242 5.000000
v -155.696521 -7.837029 5.000000
v -153.082861 -15.058797 5.000000
v -148.567074 21.375141 0.000000
v -148.193760 21.602835 0.000000
v -147.779885 21.743956 0.000000
v -147.345232 21.791758 0.000000
v -147.345232 21.791758 5.000000
v -147.779885 21.743956 5.000000
v -148.193760 21.602835 5.000000
v -148.567074 21.375141 5.000000
v -147.345232 -25.208242 0.000000
v -148.431864 -25.088737 0.000000
v -149.466552 -24.735934 0.000000
v -150.399838 -24.166699 0.000000
v -151.187107 -23.408242 0.000000
v -155.767012 -16.398696 0.000000
v -158.616492 -8.525341 0.000000
v -159.583516 -0.208242 0.000000
v -158.616492 8.108857 0.000000
v -155.767012 15.982213 0.000000
v -151.187107 22.991758 0.000000
v -150.399838 23.750215 0.000000
v -149.466552 24.319451 0.000000
v -148.431864 24.672253 0.000000
v -147.345232 24.791758 0.000000
v -147.345232 -25.208242 300.000000
v -148.431864 -25.088737 300.000000
v -149.466552 -24.735934 300.000000
v -150.399838 -24.166699 300.000000
v -151.187107 -23.408242 300.000000
v -155.767012 -16.398696 300.000000
v -158.616492 -8.525341 300.000000
v -159.583516 -0.208242 300.000000
v -158.616492 8.108857 300.000000
v -155.767012 15.982213 300.000000
v -151.187107 22.991758 300.000000
v -150.399838 23.750215 300.000000
v -149.466552 24.319451 300.000000
v -148.431864 24.672253 300.000000
v -147.345232 24.791758 300.000000
vt -14.500000 -2.200000 0.000000
vt 14.500000 -2.200000 0.000000
vt -14.500000 2.200000 0.000000
vt 14.500000 2.200000 0.000000
vt 4.700000 0.000000 0.000000
vt 5.000000 0.000000 0.000000
vt 4.700000 30.000000 0.000000
vt 5.000000 30.000000 0.000000
vt 0.300000 30.000000 0.000000
vt 0.000000 30.000000 0.000000
vt 0.300000 0.000000 0.000000
vt 0.000000 0.000000 0.000000
vt 9.650000 2.200000 0.000000
vt -10.350000 0.000000 0.000000
vt 9.650000 -2.200000 0.000000
vt -10.261301 -0.762879 0.000000
vt -9.999934 -1.485055 0.000000
vt -9.426172 2.200000 0.000000
vt -9.999934 1.485055 0.000000
vt -10.261301 0.762879 0.000000
vt -9.469637 2.195220 0.000000
vt -9.511024 2.181108 0.000000
vt -9.548356 2.158338 0.000000
vt -9.579847 2.128000 0.000000
vt -9.426172 -2.200000 0.000000
vt -9.579847 -2.128000 0.000000
vt -9.548356 -2.158338 0.000000
vt -9.511024 -2.181108 0.000000
vt -9.469637 -2.195220 0.000000
vt 0.500000 -0.000000 0.000000
vt 0.000000 -0.000000 0.000000
vt 0.500000 -0.769736 0.000000
vt 0.000000 -0.769736 0.000000
vt 0.500000 -1.539471 0.000000
vt 0.000000 -1.539471 0.000000
vt 0.500000 -2.309207 0.000000
vt 0.000000 -2.309207 0.000000
vt 0.500000 -3.078942 0.000000
vt 0.000000 -3.078942 0.000000
vt 0.500000 -3.848678 0.000000
vt -0.000000 -3.848678 0.000000
vt 0.500000 -4.618413 0.000000
vt 0.000000 -4.618413 0.000000
vt 0.500000 0.000000 0.000000
vt -0.000000 0.000000 0.000000
vt 0.500000 -0.043815 0.000000
vt 0.000000 -0.043815 0.000000
vt 0.500000 -0.087630 0.000000
vt 0.000000 -0.087630 0.000000
vt 0.500000 -0.131445 0.000000
vt -0.000000 -0.131445 0.000000
vt 0.500000 -0.175260 0.000000
vt 0.000000 -0.175260 0.000000
vt 0.500000 0.000000 0.000000
vt 0.000000 0.000000 0.000000
vt 0.500000 -0.043815 0.000000
vt 0.000000 -0.043815 0.000000
vt 0.500000 -0.087630 0.000000
vt 0.000000 -0.087630 0.000000
vt 0.500000 -0.131445 0.000000
vt 0.000000 -0.131445 0.000000
vt 0.500000 -0.175260 0.000000
vt 0.000000 -0.175260 0.000000
vt -0.000000 0.000000 0.000000
vt -19.076172 0.500000 0.000000
vt -19.776172 0.000000 0.000000
vt -19.076172 29.500000 0.000000
vt -19.776172 30.000000 0.000000
vt -0.000000 30.000000 0.000000
vt -0.000000 29.500000 0.000000
vt -0.000000 0.500000 0.000000
vt 0.500000 0.175260 0.000000
vt 0.000000 0.175260 0.000000
vt 0.500000 0.131445 0.000000
vt 0.000000 0.131445 0.000000
vt 0.500000 0.087630 0.000000
vt 0.000000 0.087630 0.000000
vt 0.500000 0.043815 0.000000
vt 0.000000 0.043815 0.000000
vt 0.500000 0.000000 0.000000
vt 0.000000 0.000000 0.000000
vt 0.500000 4.618413 0.000000
vt 0.000000 4.618413 0.000000
vt 0.500000 3.848678 0.000000
vt 0.000000 3.848678 0.000000
vt 0.500000 3.078942 0.000000
vt 0.000000 3.078942 0.000000
vt 0.500000 2.309207 0.000000
vt 0.000000 2.309207 0.000000
vt 0.500000 1.539471 0.000000
vt 0.000000 1.539471 0.000000
vt 0.500000 0.769736 0.000000
vt 0.000000 0.769736 0.000000
vt 0.500000 -0.000000 0.000000
vt 0.000000 0.000000 0.000000
vt 0.500000 0.175260 0.000000
vt 0.000000 0.175260 0.000000
vt 0.500000 0.131445 0.000000
vt 0.000000 0.131445 0.000000
vt 0.500000 0.087630 0.000000
vt 0.000000 0.087630 0.000000
vt 0.500000 0.043815 0.000000
vt 0.000000 0.043815 0.000000
vt 0.500000 0.000000 0.000000
vt 0.000000 0.000000 0.000000
vt -19.776172 0.500000 0.000000
vt -19.776172 0.000000 0.000000
vt -0.700000 0.500000 0.000000
vt -0.000000 0.000000 0.000000
vt -0.700000 29.500000 0.000000
vt -0.000000 30.000000 0.000000
vt -19.776172 30.000000 0.000000
vt -19.776172 29.500000 0.000000
vt -9.650000 -2.200000 0.000000
vt 10.350000 0.000000 0.000000
vt -9.650000 2.200000 0.000000
vt 10.261301 0.762879 0.000000
vt 9.999934 1.485055 0.000000
vt 9.426172 -2.200000 0.000000
vt 9.999934 -1.485055 0.000000
vt 10.261301 -0.762879 0.000000
vt 9.469637 -2.195220 0.000000
vt 9.511024 -2.181108 0.000000
vt 9.548356 -2.158338 0.000000
vt 9.579847 -2.128000 0.000000
vt 9.426172 2.200000 0.000000
vt 9.579847 2.128000 0.000000
vt 9.548356 2.158338 0.000000
vt 9.511024 2.181108 0.000000
vt 9.469637 2.195220 0.000000
vt -10.500000 2.500000 0.000000
vt -10.500000 2.200000 0.000000
vt 9.276172 2.500000 0.000000
vt 9.276172 2.200000 0.000000
vt 9.488304 2.452769 0.000000
vt 9.581632 2.395846 0.000000
vt 9.660359 2.320000 0.000000
vt 9.319637 2.195220 0.000000
vt 9.361024 2.181108 0.000000
vt 9.398356 2.158338 0.000000
vt 9.429847 2.128000 0.000000
vt 10.118350 1.619045 0.000000
vt 9.849934 1.485055 0.000000
vt 10.403298 0.831710 0.000000
vt 10.111301 0.762879 0.000000
vt 10.500000 0.000000 0.000000
vt 10.200000 0.000000 0.000000
vt 10.111301 -0.762879 0.000000
vt 10.403298 -0.831710 0.000000
vt 9.849934 -1.485055 0.000000
vt 10.118350 -1.619045 0.000000
vt 9.429847 -2.128000 0.000000
vt 9.660359 -2.320000 0.000000
vt 9.398356 -2.158338 0.000000
vt 9.361024 -2.181108 0.000000
vt 9.319637 -2.195220 0.000000
vt 9.276172 -2.200000 0.000000
vt 9.581632 -2.395846 0.000000
vt 9.488304 -2.452769 0.000000
vt 9.276172 -2.500000 0.000000
vt 9.384835 -2.488049 0.000000
vt -10.500000 -2.200000 0.000000
vt -10.500000 -2.500000 0.000000
vt 9.384835 2.488049 0.000000
vt 0.000000 0.000000 0.000000
vt 19.776172 0.000000 0.000000
vt 0.000000 30.000000 0.000000
vt 19.776172 30.000000 0.000000
vt -30.000000 -0.000000 0.000000
vt -0.000000 0.000000 0.000000
vt -30.000000 0.109537 0.000000
vt -0.000000 0.109537 0.000000
vt -30.000000 0.219075 0.000000
vt -0.000000 0.219075 0.000000
vt -30.000000 0.328612 0.000000
vt -0.000000 0.328612 0.000000
vt -30.000000 0.438149 0.000000
vt -0.000000 0.438149 0.000000
vt -30.000000 -0.000000 0.000000
vt -0.000000 -0.000000 0.000000
vt -30.000000 0.839185 0.000000
vt -0.000000 0.839185 0.000000
vt -30.000000 1.678371 0.000000
vt -0.000000 1.678371 0.000000
vt -30.000000 2.517556 0.000000
vt -0.000000 2.517556 0.000000
vt -30.000000 3.356742 0.000000
vt -0.000000 3.356742 0.000000
vt -30.000000 4.195927 0.000000
vt -0.000000 4.195927 0.000000
vt -30.000000 5.035112 0.000000
vt -0.000000 5.035112 0.000000
vt -30.000000 0.000000 0.000000
vt -0.000000 0.000000 0.000000
vt -30.000000 0.109537 0.000000
vt -0.000000 0.109537 0.000000
vt -30.000000 0.219075 0.000000
vt -0.000000 0.219075 0.000000
vt -30.000000 0.328612 0.000000
vt -0.000000 0.328612 0.000000
vt -30.000000 0.438149 0.000000
vt -0.000000 0.438149 0.000000
vt 0.000000 0.000000 0.000000
vt 19.776172 0.000000 0.000000
vt 0.000000 30.000000 0.000000
vt 19.776172 30.000000 0.000000
vt 10.500000 2.200000 0.000000
vt -9.276172 2.500000 0.000000
vt -9.276172 2.200000 0.000000
vt -9.488304 2.452769 0.000000
vt -9.581632 2.395846 0.000000
vt 10.500000 2.500000 0.000000
vt -9.384835 2.488049 0.000000
vt -9.660359 2.320000 0.000000
vt -9.319637 2.195220 0.000000
vt -9.361024 2.181108 0.000000
vt -9.398356 2.158338 0.000000
vt -9.429847 2.128000 0.000000
vt -10.118350 1.619045 0.000000
vt -9.849934 1.485055 0.000000
vt -10.403298 0.831710 0.000000
vt -10.111301 0.762879 0.000000
vt -10.500000 0.000000 0.000000
vt -10.200000 0.000000 0.000000
vt -10.111301 -0.762879 0.000000
vt -10.403298 -0.831710 0.000000
vt -9.849934 -1.485055 0.000000
vt -10.118350 -1.619045 0.000000
vt -9.429847 -2.128000 0.000000
vt -9.660359 -2.320000 0.000000
vt -9.398356 -2.158338 0.000000
vt -9.361024 -2.181108 0.000000
vt -9.319637 -2.195220 0.000000
vt -9.276172 -2.200000 0.000000
vt -9.581632 -2.395846 0.000000
vt -9.488304 -2.452769 0.000000
vt -9.384835 -2.488049 0.000000
vt -9.276172 -2.500000 0.000000
vt 10.500000 -2.500000 0.000000
vt 10.500000 -2.200000 0.000000
vn 0.100000 0.000000 0.000000
vn 0.100000 0.000000 0.000000
vn 0.100000 0.000000 0.000000
vn 0.100000 0.000000 0.000000
vn 0.100000 0.000000 0.000000
vn 0.100000 0.000000 0.000000
vn 0.100000 0.000000 0.000000
vn 0.100000 0.000000 0.000000
vn 0.100000 0.000000 0.000000
vn 0.100000 0.000000 0.000000
vn 0.100000 0.000000 0.000000
vn 0.100000 0.000000 0.000000
vn 0.000000 0.000000 0.100000
vn 0.000000 0.000000 0.100000
vn 0.000000 0.000000 0.100000
vn 0.000000 0.000000 0.100000
vn 0.000000 0.000000 0.100000
vn 0.000000 0.000000 0.100000
vn 0.000000 0.000000 0.100000
vn 0.000000 0.000000 0.100000
vn 0.000000 0.000000 0.100000
vn 0.000000 0.000000 0.100000
vn 0.000000 0.000000 0.100000
vn 0.000000 0.000000 0.100000
vn 0.000000 0.000000 0.100000
vn 0.000000 0.000000 0.100000
vn 0.000000 0.000000 0.100000
vn 0.000000 0.000000 0.100000
vn 0.000000 0.000000 0.100000
vn 0.076837 -0.064000 0.000000
vn 0.076837 -0.064000 0.000000
vn 0.089472 -0.044663 0.000000
vn 0.089472 -0.044663 0.000000
vn 0.097332 -0.022944 0.000000
vn 0.097332 -0.022944 0.000000
vn 0.100000 -0.000000 0.000000
vn 0.100000 -0.000000 0.000000
vn 0.097332 0.022944 0.000000
vn 0.097332 0.022944 0.000000
vn 0.089472 0.044663 0.000000
vn 0.089472 0.044663 0.000000
vn 0.076837 0.064000 0.000000
vn 0.076837 0.064000 0.000000
vn 0.061092 0.079169 0.000000
vn 0.061092 0.079169 0.000000
vn 0.042426 0.090554 0.000000
vn 0.042426 0.090554 0.000000
vn 0.021733 0.097610 0.000000
vn 0.021733 0.097610 0.000000
vn 0.000000 0.100000 0.000000
vn 0.000000 0.100000 0.000000
vn 0.000000 -0.100000 0.000000
vn 0.000000 -0.100000 0.000000
vn 0.021733 -0.097610 0.000000
vn 0.021733 -0.097610 0.000000
vn 0.042426 -0.090554 0.000000
vn 0.042426 -0.090554 0.000000
vn 0.061092 -0.079169 0.000000
vn 0.061092 -0.079169 0.000000
vn -0.000000 0.100000 -0.000000
vn -0.000000 0.100000 -0.000000
vn -0.000000 0.100000 -0.000000
vn -0.000000 0.100000 -0.000000
vn -0.000000 0.100000 -0.000000
vn -0.000000 0.100000 -0.000000
vn 0.021733 0.097610 0.000000
vn 0.021733 0.097610 0.000000
vn 0.042426 0.090554 0.000000
vn 0.042426 0.090554 0.000000
vn 0.061092 0.079169 0.000000
vn 0.061092 0.079169 0.000000
vn 0.076837 0.064000 0.000000
vn 0.076837 0.064000 0.000000
vn 0.089472 0.044663 0.000000
vn 0.089472 0.044663 0.000000
vn 0.097332 0.022944 0.000000
vn 0.097332 0.022944 0.000000
vn 0.100000 -0.000000 0.000000
vn 0.100000 -0.000000 0.000000
vn 0.097332 -0.022944 0.000000
vn 0.097332 -0.022944 0.000000
vn 0.089472 -0.044663 0.000000
vn 0.089472 -0.044663 0.000000
vn 0.076837 -0.064000 0.000000
vn 0.076837 -0.064000 0.000000
vn 0.061092 -0.079169 0.000000
vn 0.061092 -0.079169 0.000000
vn 0.042426 -0.090554 0.000000
vn 0.042426 -0.090554 0.000000
vn 0.021733 -0.097610 0.000000
vn 0.021733 -0.097610 0.000000
vn 0.000000 -0.100000 0.000000
vn 0.000000 -0.100000 0.000000
vn 0.000000 -0.100000 0.000000
vn 0.000000 -0.100000 0.000000
vn 0.000000 -0.100000 0.000000
vn 0.000000 -0.100000 0.000000
vn 0.000000 0.000000 -0.100000
vn 0.000000 0.000000 -0.100000
vn 0.000000 0.000000 -0.100000
vn 0.000000 0.000000 -0.100000
vn 0.000000 0.000000 -0.100000
vn 0.000000 0.000000 -0.100000
vn 0.000000 0.000000 -0.100000
vn 0.000000 0.000000 -0.100000
vn 0.000000 0.000000 -0.100000
vn 0.000000 0.000000 -0.100000
vn 0.000000 0.000000 -0.100000
vn 0.000000 0.000000 -0.100000
vn 0.000000 0.000000 -0.100000
vn 0.000000 0.000000 -0.100000
vn 0.000000 0.000000 -0.100000
vn 0.000000 0.000000 -0.100000
vn 0.000000 0.000000 -0.100000
vn 0.000000 0.000000 -0.100000
vn 0.000000 0.000000 -0.100000
vn 0.000000 0.000000 -0.100000
vn 0.000000 0.000000 -0.100000
vn 0.000000 0.000000 -0.100000
vn 0.000000 0.000000 -0.100000
vn 0.000000 0.000000 -0.100000
vn 0.000000 0.000000 -0.100000
vn 0.000000 0.000000 -0.100000
vn 0.000000 0.000000 -0.100000
vn 0.000000 0.000000 -0.100000
vn 0.000000 0.000000 -0.100000
vn 0.000000 0.000000 -0.100000
vn 0.000000 0.000000 -0.100000
vn 0.000000 0.000000 -0.100000
vn 0.000000 0.000000 -0.100000
vn 0.000000 0.000000 -0.100000
vn 0.000000 0.000000 -0.100000
vn 0.000000 0.000000 -0.100000
vn 0.000000 0.000000 -0.100000
vn 0.000000 0.000000 -0.100000
vn 0.000000 0.000000 -0.100000
vn 0.000000 0.000000 -0.100000
vn 0.000000 0.000000 -0.100000
vn 0.000000 0.000000 -0.100000
vn 0.000000 0.000000 -0.100000
vn 0.000000 0.000000 -0.100000
vn 0.000000 0.000000 -0.100000
vn 0.000000 0.000000 -0.100000
vn 0.000000 0.000000 -0.100000
vn 0.000000 0.000000 -0.100000
vn 0.000000 0.000000 -0.100000
vn 0.000000 0.000000 -0.100000
vn 0.000000 0.000000 -0.100000
vn 0.000000 -0.100000 0.000000
vn 0.000000 -0.100000 0.000000
vn 0.000000 -0.100000 0.000000
vn 0.000000 -0.100000 0.000000
vn -0.076837 -0.064000 0.000000
vn -0.076837 -0.064000 0.000000
vn -0.061092 -0.079169 0.000000
vn -0.061092 -0.079169 0.000000
vn -0.042426 -0.090554 0.000000
vn -0.042426 -0.090554 0.000000
vn -0.021733 -0.097610 0.000000
vn -0.021733 -0.097610 0.000000
vn -0.076837 0.064000 -0.000000
vn -0.076837 0.064000 -0.000000
vn -0.089472 0.044663 -0.000000
vn -0.089472 0.044663 -0.000000
vn -0.097332 0.022944 -0.000000
vn -0.097332 0.022944 -0.000000
vn -0.100000 0.000000 -0.000000
vn -0.100000 0.000000 -0.000000
vn -0.097332 -0.022944 0.000000
vn -0.097332 -0.022944 0.000000
vn -0.089472 -0.044663 0.000000
vn -0.089472 -0.044663 0.000000
vn -0.000000 0.100000 -0.000000
vn -0.000000 0.100000 -0.000000
vn -0.021733 0.097610 -0.000000
vn -0.021733 0.097610 -0.000000
vn -0.042426 0.090554 -0.000000
vn -0.042426 0.090554 -0.000000
vn -0.061092 0.079169 -0.000000
vn -0.061092 0.079169 -0.000000
vn 0.000000 0.100000 0.000000
vn 0.000000 0.100000 0.000000
vn 0.000000 0.000000 0.100000
vn 0.000000 0.000000 0.100000
vn 0.000000 0.000000 0.100000
vn 0.000000 0.000000 0.100000
vn 0.000000 0.000000 0.100000
vn 0.000000 0.000000 0.100000
vn 0.000000 0.000000 0.100000
vn 0.000000 0.000000 0.100000
vn 0.000000 0.000000 0.100000
vn 0.000000 0.000000 0.100000
vn 0.000000 0.000000 0.100000
vn 0.000000 0.000000 0.100000
vn 0.000000 0.000000 0.100000
vn 0.000000 0.000000 0.100000
vn 0.000000 0.000000 0.100000
vn 0.000000 0.000000 0.100000
vn 0.000000 0.000000 0.100000
vn 0.000000 0.000000 0.100000
vn 0.000000 0.000000 0.100000
vn 0.000000 0.000000 0.100000
vn 0.000000 0.000000 0.100000
vn 0.000000 0.000000 0.100000
vn 0.000000 0.000000 0.100000
vn 0.000000 0.000000 0.100000
vn 0.000000 0.000000 0.100000
vn 0.000000 0.000000 0.100000
vn 0.000000 0.000000 0.100000
vn 0.000000 0.000000 0.100000
vn 0.000000 0.000000 0.100000
vn 0.000000 0.000000 0.100000
vn 0.000000 0.000000 0.100000
vn 0.000000 0.000000 0.100000
vn 0.000000 0.000000 0.100000
vn 0.000000 0.000000 0.100000
usemtl Base_material_-_Layered
f 2/1/1 3/2/2 1/3/3
f 1/3/3 3/2/2 4/4/4
usemtl Leather_-_Matte_(Red)
f 6/5/5 7/6/6 5/7/7
f 5/7/7 7/6/6 8/8/8
f 10/9/9 11/10/10 9/11/11
f 9/11/11 11/10/10 12/12/12
usemtl Base_material_-_Layered
f 1/13/13 20/14/14 2/15/15
f 2/15/15 20/14/14 21/16/16
f 2/15/15 21/16/16 22/17/17
f 13/18/18 18/19/19 1/13/13
f 1/13/13 18/19/19 19/20/20
f 1/13/13 19/20/20 20/14/14
f 14/21/21 15/22/22 13/18/18
f 13/18/18 15/22/22 16/23/23
f 13/18/18 16/23/23 17/24/24
f 17/24/24 18/19/19 13/18/18
f 2/15/15 22/17/17 27/25/25
f 27/25/25 22/17/17 23/26/26
f 27/25/25 23/26/26 24/27/27
f 24/27/27 25/28/28 27/25/25
f 27/25/25 25/28/28 26/29/29
usemtl Leather_-_Matte_(Red)
f 17/30/30 28/31/31 18/32/32
f 18/32/32 28/31/31 29/33/33
f 18/32/32 29/33/33 19/34/34
f 19/34/34 29/33/33 30/35/35
f 19/34/34 30/35/35 20/36/36
f 20/36/36 30/35/35 31/37/37
f 20/36/36 31/37/37 21/38/38
f 21/38/38 31/37/37 32/39/39
f 21/38/38 32/39/39 22/40/40
f 22/40/40 32/39/39 33/41/41
f 22/40/40 33/41/41 23/42/42
f 23/42/42 33/41/41 34/43/43
f 23/44/42 34/45/43 24/46/44
f 24/46/44 34/45/43 35/47/45
f 24/46/44 35/47/45 25/48/46
f 25/48/46 35/47/45 36/49/47
f 25/48/46 36/49/47 26/50/48
f 26/50/48 36/49/47 37/51/49
f 26/50/48 37/51/49 27/52/50
f 27/52/50 37/51/49 38/53/51
f 13/54/52 39/55/53 14/56/54
f 14/56/54 39/55/53 40/57/55
f 14/56/54 40/57/55 15/58/56
f 15/58/56 40/57/55 41/59/57
f 15/58/56 41/59/57 16/60/58
f 16/60/58 41/59/57 42/61/59
f 16/60/58 42/61/59 17/62/30
f 17/62/30 42/61/59 28/63/31
f 43/64/60 3/65/61 9/66/62
f 9/66/62 3/65/61 2/67/63
f 9/66/62 2/67/63 10/68/64
f 10/68/64 2/67/63 38/69/51
f 38/69/51 2/67/63 27/70/50
f 43/64/60 44/71/65 3/65/61
f 44/72/65 43/73/60 52/74/66
f 52/74/66 43/73/60 45/75/67
f 52/74/66 45/75/67 51/76/68
f 51/76/68 45/75/67 46/77/69
f 51/76/68 46/77/69 50/78/70
f 50/78/70 46/77/69 47/79/71
f 50/78/70 47/79/71 49/80/72
f 49/80/72 47/79/71 48/81/73
f 49/82/72 48/83/73 64/84/74
f 64/84/74 48/83/73 53/85/75
f 64/84/74 53/85/75 63/86/76
f 63/86/76 53/85/75 54/87/77
f 63/86/76 54/87/77 62/88/78
f 62/88/78 54/87/77 55/89/79
f 62/88/78 55/89/79 61/90/80
f 61/90/80 55/89/79 56/91/81
f 61/90/80 56/91/81 60/92/82
f 60/92/82 56/91/81 57/93/83
f 60/92/82 57/93/83 59/94/84
f 59/94/84 57/93/83 58/95/85
f 59/96/84 58/97/85 72/98/86
f 72/98/86 58/97/85 65/99/87
f 72/98/86 65/99/87 71/100/88
f 71/100/88 65/99/87 66/101/89
f 71/100/88 66/101/89 70/102/90
f 70/102/90 66/101/89 67/103/91
f 70/102/90 67/103/91 69/104/92
f 69/104/92 67/103/91 68/105/93
f 69/106/92 68/107/93 4/108/94
f 4/108/94 68/107/93 6/109/95
f 4/108/94 6/109/95 1/110/96
f 1/110/96 6/109/95 5/111/97
f 1/110/96 5/111/97 39/112/53
f 39/112/53 13/113/52 1/110/96
usemtl Base_material_-_Layered
f 3/114/98 62/115/99 4/116/100
f 4/116/100 62/115/99 61/117/101
f 4/116/100 61/117/101 60/118/102
f 44/119/103 64/120/104 3/114/98
f 3/114/98 64/120/104 63/121/105
f 3/114/98 63/121/105 62/115/99
f 52/122/106 51/123/107 44/119/103
f 44/119/103 51/123/107 50/124/108
f 44/119/103 50/124/108 49/125/109
f 49/125/109 64/120/104 44/119/103
f 4/116/100 60/118/102 69/126/110
f 69/126/110 60/118/102 59/127/111
f 69/126/110 59/127/111 72/128/112
f 72/128/112 71/129/113 69/126/110
f 69/126/110 71/129/113 70/130/114
usemtl Leather_-_Matte_(Red)
f 7/131/115 6/132/116 87/133/117
f 87/133/117 6/132/116 68/134/118
f 87/133/117 68/134/118 85/135/119
f 85/135/119 68/134/118 84/136/120
f 84/136/120 68/134/118 83/137/121
f 83/137/121 68/134/118 67/138/122
f 83/137/121 67/138/122 66/139/123
f 66/139/123 65/140/124 83/137/121
f 83/137/121 65/140/124 58/141/125
f 83/137/121 58/141/125 82/142/126
f 82/142/126 58/141/125 57/143/127
f 82/142/126 57/143/127 81/144/128
f 81/144/128 57/143/127 56/145/129
f 81/144/128 56/145/129 80/146/130
f 80/146/130 56/145/129 55/147/131
f 80/146/130 55/147/131 54/148/132
f 80/146/130 54/148/132 79/149/133
f 79/149/133 54/148/132 53/150/134
f 79/149/133 53/150/134 78/151/135
f 78/151/135 53/150/134 48/152/136
f 78/151/135 48/152/136 77/153/137
f 77/153/137 48/152/136 47/154/138
f 77/153/137 47/154/138 46/155/139
f 46/155/139 45/156/140 77/153/137
f 77/153/137 45/156/140 43/157/141
f 77/153/137 43/157/141 76/158/142
f 76/158/142 43/157/141 75/159/143
f 75/159/143 43/157/141 73/160/144
f 75/159/143 73/160/144 74/161/145
f 9/162/146 12/163/147 43/157/141
f 43/157/141 12/163/147 73/160/144
f 85/135/119 86/164/148 87/133/117
f 73/165/149 12/166/150 88/167/151
f 88/167/151 12/166/150 11/168/152
f 92/169/153 77/170/154 91/171/155
f 91/171/155 77/170/154 76/172/156
f 91/171/155 76/172/156 90/173/157
f 90/173/157 76/172/156 75/174/158
f 90/173/157 75/174/158 89/175/159
f 89/175/159 75/174/158 74/176/160
f 89/175/159 74/176/160 88/177/151
f 88/177/151 74/176/160 73/178/149
f 98/179/161 83/180/162 97/181/163
f 97/181/163 83/180/162 82/182/164
f 97/181/163 82/182/164 96/183/165
f 96/183/165 82/182/164 81/184/166
f 96/183/165 81/184/166 95/185/167
f 95/185/167 81/184/166 80/186/168
f 95/185/167 80/186/168 94/187/169
f 94/187/169 80/186/168 79/188/170
f 94/187/169 79/188/170 93/189/171
f 93/189/171 79/188/170 78/190/172
f 93/189/171 78/190/172 92/191/153
f 92/191/153 78/190/172 77/192/154
f 102/193/173 87/194/174 101/195/175
f 101/195/175 87/194/174 86/196/176
f 101/195/175 86/196/176 100/197/177
f 100/197/177 86/196/176 85/198/178
f 100/197/177 85/198/178 99/199/179
f 99/199/179 85/198/178 84/200/180
f 99/199/179 84/200/180 98/201/161
f 98/201/161 84/200/180 83/202/162
f 7/203/181 87/204/174 8/205/182
f 8/205/182 87/204/174 102/206/173
f 5/207/183 102/208/184 39/209/185
f 39/209/185 102/208/184 100/210/186
f 39/209/185 100/210/186 99/211/187
f 5/207/183 8/212/188 102/208/184
f 102/208/184 101/213/189 100/210/186
f 99/211/187 98/214/190 39/209/185
f 39/209/185 98/214/190 40/215/191
f 40/215/191 98/214/190 41/216/192
f 41/216/192 98/214/190 42/217/193
f 42/217/193 98/214/190 28/218/194
f 28/218/194 98/214/190 97/219/195
f 28/218/194 97/219/195 29/220/196
f 29/220/196 97/219/195 96/221/197
f 29/220/196 96/221/197 30/222/198
f 30/222/198 96/221/197 95/223/199
f 30/222/198 95/223/199 31/224/200
f 31/224/200 95/223/199 32/225/201
f 32/225/201 95/223/199 94/226/202
f 32/225/201 94/226/202 33/227/203
f 33/227/203 94/226/202 93/228/204
f 33/227/203 93/228/204 34/229/205
f 34/229/205 93/228/204 92/230/206
f 34/229/205 92/230/206 35/231/207
f 35/231/207 92/230/206 36/232/208
f 36/232/208 92/230/206 37/233/209
f 37/233/209 92/230/206 38/234/210
f 38/234/210 92/230/206 91/235/211
f 38/234/210 91/235/211 90/236/212
f 89/237/213 88/238/214 90/236/212
f 90/236/212 88/238/214 38/234/210
f 88/238/214 11/239/215 38/234/210
f 38/234/210 11/239/215 10/240/216
# 102 vertices
# 240 texture params
# 216 normals
# 200 facets

# 1 groups
